# xmcd CD database file
#
# Track frame offsets:
#	300
#	15416
#	31116
#	42534
#	52934
#	65325
#	80598
#	94320
#	108333
#	123019
#	136883
#	151022
#	161969
#	174763
#	189051
#	202664
#	215937
#	230031
#	244857
#	259931
#	272266
#	286458
#	298103
#	311325
#	321480
#
# Disc length: 4425 seconds
#
# Revision: 1
# Processed by: cddbd v1.5.2PL0 Copyright (c) Steve Scherf et al.
# Submitted via: CDex 1.51
#
DISCID=5b114519
DTITLE=The Big Broadcast - Jazz and Popular Music of the 1920's and 1930's
DYEAR=1900
DGENRE=Jazz
TTITLE0=Fletcher Henderson and His Orchestra - My Papa Doesn't Two-Time No Time (1924)
TTITLE1=Mound City Blue Blowers - Blues in F (1925)
TTITLE2=Ben Bernie's Hotel Roosevelt Orchestra - Rosy Cheeks (1927)
TTITLE3=Scrappy Lambert - Me and My Shadow (1927)
TTITLE4=Don Voorhees and His Orchestra - Soliloquy (1927)
TTITLE5=Larry Abbott and His Orchestra - I'm More Than Satisfied (1927)
TTITLE6=Musical Stevedores - Happy Rhythm (1929)
TTITLE7=Fred Rich and His Orchestra - Tip Toe Thru the Tulips (1929)
TTITLE8=Marion Harris - Blue Again (1930)
TTITLE9=Cab Calloway and His Orchestra - Is That Religion? (1930)
TTITLE10=Red Nichols and His Five Pennies - Goin' to Town (1932)
TTITLE11=The Three Keys - Jig Time (1932)
TTITLE12=Paul Whiteman and His Orchestra - Look What I've Got (1933)
TTITLE13=Rudy Vallee and His Connecticut Yankees - Thank Heaven For You (1933)
TTITLE14=Glen Grey and the Casa Loma Orchestra - The River's Takin' Care of Me (1933)
TTITLE15=Ted Lewis and His Band - Here You Come With Love (1933)
TTITLE16=Chocolate Dandies - I  Never Knew (1933)
TTITLE17=Cliff Edwards with the Eton Boys - St. Louis Blues (1934)
TTITLE18=Joe Venuti and His Blue Four - Mello as a 'Cello (1935)
TTITLE19=Mal Hallett and His Orchestra - Mary Lou (1936)
TTITLE20=Garland Wilson - Just One of Those Things (1936)
TTITLE21=Paul Whiteman and His Orchestra - Shall We Dance (1937)
TTITLE22=Gene Austin - China Boy (1937)
TTITLE23=Barney Rapp and His Orchestra - Adam's Apple (1937)
TTITLE24=Roger Wolfe Kahn and His Orchestra - It Don't Mean a Thing (1932)
EXTD=
EXTT0=
EXTT1=
EXTT2=
EXTT3=
EXTT4=
EXTT5=
EXTT6=
EXTT7=
EXTT8=
EXTT9=
EXTT10=
EXTT11=
EXTT12=
EXTT13=
EXTT14=
EXTT15=
EXTT16=
EXTT17=
EXTT18=
EXTT19=
EXTT20=
EXTT21=
EXTT22=
EXTT23=
EXTT24=
PLAYORDER=
